<svg xmlns="http://www.w3.org/2000/svg" xmlns:xlink="http://www.w3.org/1999/xlink" width="50" zoomAndPan="magnify" viewBox="0 0 37.5 37.499999" height="50" preserveAspectRatio="xMidYMid meet" version="1.0"><defs><clipPath id="3424c723c5"><path d="M 0.925781 0.925781 L 36.453125 0.925781 L 36.453125 36.453125 L 0.925781 36.453125 Z M 0.925781 0.925781 " clip-rule="nonzero"/></clipPath></defs><g clip-path="url(#3424c723c5)"><path fill="#ffffff" d="M 18.503906 0.925781 C 8.816406 0.925781 0.925781 8.816406 0.925781 18.503906 C 0.925781 28.191406 8.816406 36.082031 18.503906 36.082031 C 28.191406 36.082031 36.082031 28.191406 36.082031 18.503906 C 36.082031 8.816406 28.191406 0.925781 18.503906 0.925781 Z M 18.503906 4.441406 C 26.289062 4.441406 32.566406 10.714844 32.566406 18.503906 C 32.566406 26.289062 26.289062 32.566406 18.503906 32.566406 C 10.714844 32.566406 4.441406 26.289062 4.441406 18.503906 C 4.441406 10.714844 10.714844 4.441406 18.503906 4.441406 Z M 18.503906 4.441406 " fill-opacity="1" fill-rule="nonzero"/></g></svg>