<svg id="visual" viewBox="0 0 1280 786" width="1280" height="786" xmlns="http://www.w3.org/2000/svg" xmlns:xlink="http://www.w3.org/1999/xlink" version="1.1"><path d="M0 80L116 119L233 72L349 103L465 119L582 119L698 119L815 72L931 150L1047 111L1164 158L1280 64L1280 0L1164 0L1047 0L931 0L815 0L698 0L582 0L465 0L349 0L233 0L116 0L0 0Z" fill="#03045e"></path><path d="M0 221L116 268L233 331L349 276L465 213L582 433L698 347L815 315L931 496L1047 394L1164 315L1280 292L1280 62L1164 156L1047 109L931 148L815 70L698 117L582 117L465 117L349 101L233 70L116 117L0 78Z" fill="#002578"></path><path d="M0 268L116 402L233 378L349 363L465 339L582 512L698 465L815 394L931 559L1047 488L1164 386L1280 425L1280 290L1164 313L1047 392L931 494L815 313L698 345L582 431L465 211L349 274L233 329L116 266L0 219Z" fill="#004190"></path><path d="M0 685L116 622L233 567L349 630L465 646L582 701L698 614L815 583L931 693L1047 598L1164 638L1280 669L1280 423L1164 384L1047 486L931 557L815 392L698 463L582 510L465 337L349 361L233 376L116 400L0 266Z" fill="#005ca5"></path><path d="M0 787L116 787L233 787L349 787L465 787L582 787L698 787L815 787L931 787L1047 787L1164 787L1280 787L1280 667L1164 636L1047 596L931 691L815 581L698 612L582 699L465 644L349 628L233 565L116 620L0 683Z" fill="#0077b6"></path></svg>