<svg xmlns="http://www.w3.org/2000/svg" xmlns:xlink="http://www.w3.org/1999/xlink" width="50" zoomAndPan="magnify" viewBox="0 0 37.5 37.499999" height="50" preserveAspectRatio="xMidYMid meet" version="1.0"><defs><clipPath id="918c5353c2"><path d="M 6.117188 2 L 30.542969 2 L 30.542969 36.425781 L 6.117188 36.425781 Z M 6.117188 2 " clip-rule="nonzero"/></clipPath><clipPath id="04611fc20b"><path d="M 11 0.902344 L 26 0.902344 L 26 4 L 11 4 Z M 11 0.902344 " clip-rule="nonzero"/></clipPath></defs><g clip-path="url(#918c5353c2)"><path fill="#f7f2e8" d="M 7.382812 2.367188 L 29.277344 2.367188 C 29.972656 2.367188 30.539062 2.945312 30.539062 3.65625 L 30.539062 35.140625 C 30.539062 35.851562 29.972656 36.425781 29.277344 36.425781 L 7.382812 36.425781 C 6.6875 36.425781 6.121094 35.851562 6.121094 35.140625 L 6.121094 3.65625 C 6.121094 2.945312 6.6875 2.367188 7.382812 2.367188 Z M 7.382812 2.367188 " fill-opacity="1" fill-rule="nonzero"/></g><path fill="#158d86" d="M 10.601562 8.761719 C 11.667969 8.761719 12.527344 9.640625 12.527344 10.730469 C 12.527344 11.820312 11.667969 12.699219 10.601562 12.699219 C 9.539062 12.699219 8.675781 11.820312 8.675781 10.730469 C 8.675781 9.640625 9.546875 8.761719 10.601562 8.761719 Z M 10.601562 15.386719 C 11.667969 15.386719 12.527344 16.269531 12.527344 17.359375 C 12.527344 18.445312 11.667969 19.328125 10.601562 19.328125 C 9.539062 19.328125 8.675781 18.445312 8.675781 17.359375 C 8.675781 16.269531 9.546875 15.386719 10.601562 15.386719 Z M 10.601562 15.386719 " fill-opacity="1" fill-rule="nonzero"/><path fill="#f15363" d="M 10.601562 22.007812 C 11.667969 22.007812 12.527344 22.886719 12.527344 23.976562 C 12.527344 25.066406 11.667969 25.945312 10.601562 25.945312 C 9.539062 25.945312 8.675781 25.066406 8.675781 23.976562 C 8.675781 22.886719 9.546875 22.007812 10.601562 22.007812 Z M 10.601562 22.007812 " fill-opacity="1" fill-rule="nonzero"/><path fill="#f6ad9a" d="M 10.601562 28.632812 C 11.667969 28.632812 12.527344 29.515625 12.527344 30.605469 C 12.527344 31.691406 11.667969 32.574219 10.601562 32.574219 C 9.539062 32.574219 8.675781 31.691406 8.675781 30.605469 C 8.675781 29.515625 9.546875 28.632812 10.601562 28.632812 Z M 16.304688 9.074219 L 26.28125 9.074219 C 27.179688 9.074219 27.898438 9.8125 27.898438 10.730469 C 27.898438 11.648438 27.179688 12.386719 26.28125 12.386719 L 16.304688 12.386719 C 15.40625 12.386719 14.683594 11.648438 14.683594 10.730469 C 14.683594 9.8125 15.40625 9.074219 16.304688 9.074219 Z M 16.304688 15.691406 L 26.28125 15.691406 C 27.179688 15.691406 27.898438 16.429688 27.898438 17.347656 C 27.898438 18.265625 27.179688 19.003906 26.28125 19.003906 L 16.304688 19.003906 C 15.40625 19.003906 14.683594 18.265625 14.683594 17.347656 C 14.683594 16.4375 15.40625 15.691406 16.304688 15.691406 Z M 16.367188 22.320312 L 26.34375 22.320312 C 27.242188 22.320312 27.964844 23.058594 27.964844 23.976562 C 27.964844 24.894531 27.242188 25.632812 26.34375 25.632812 L 16.367188 25.632812 C 15.46875 25.632812 14.75 24.894531 14.75 23.976562 C 14.75 23.058594 15.480469 22.320312 16.367188 22.320312 Z M 16.304688 28.9375 L 26.28125 28.9375 C 27.179688 28.9375 27.898438 29.675781 27.898438 30.59375 C 27.898438 31.511719 27.179688 32.25 26.28125 32.25 L 16.304688 32.25 C 15.40625 32.25 14.683594 31.511719 14.683594 30.59375 C 14.683594 29.6875 15.40625 28.9375 16.304688 28.9375 Z M 16.304688 28.9375 " fill-opacity="1" fill-rule="nonzero"/><g clip-path="url(#04611fc20b)"><path fill="#f7b168" d="M 12.851562 0.902344 L 23.808594 0.902344 C 24.476562 0.902344 25.011719 1.449219 25.011719 2.132812 L 25.011719 2.605469 C 25.011719 3.289062 24.476562 3.835938 23.808594 3.835938 L 12.851562 3.835938 C 12.183594 3.835938 11.648438 3.289062 11.648438 2.605469 L 11.648438 2.132812 C 11.648438 1.449219 12.183594 0.902344 12.851562 0.902344 Z M 12.851562 0.902344 " fill-opacity="1" fill-rule="nonzero"/></g></svg>