<svg xmlns="http://www.w3.org/2000/svg" xmlns:xlink="http://www.w3.org/1999/xlink" width="50" zoomAndPan="magnify" viewBox="0 0 37.5 37.499999" height="50" preserveAspectRatio="xMidYMid meet" version="1.0"><defs><clipPath id="022a334cdc"><path d="M 0.925781 0.925781 L 36.453125 0.925781 L 36.453125 36.453125 L 0.925781 36.453125 Z M 0.925781 0.925781 " clip-rule="nonzero"/></clipPath><clipPath id="94762b9ec4"><path d="M 0.925781 0.925781 L 37.007812 0.925781 L 37.007812 37.007812 L 0.925781 37.007812 Z M 0.925781 0.925781 " clip-rule="nonzero"/></clipPath></defs><g clip-path="url(#022a334cdc)"><path fill="#ffffff" d="M 18.503906 0.925781 C 8.816406 0.925781 0.925781 8.816406 0.925781 18.503906 C 0.925781 28.191406 8.816406 36.082031 18.503906 36.082031 C 28.191406 36.082031 36.082031 28.191406 36.082031 18.503906 C 36.082031 8.816406 28.191406 0.925781 18.503906 0.925781 Z M 18.503906 4.441406 C 26.289062 4.441406 32.566406 10.714844 32.566406 18.503906 C 32.566406 26.289062 26.289062 32.566406 18.503906 32.566406 C 10.714844 32.566406 4.441406 26.289062 4.441406 18.503906 C 4.441406 10.714844 10.714844 4.441406 18.503906 4.441406 Z M 18.503906 4.441406 " fill-opacity="1" fill-rule="nonzero"/></g><g clip-path="url(#94762b9ec4)"><path fill="#37a8ff" d="M 18.964844 0.925781 C 9.003906 0.925781 0.925781 9.003906 0.925781 18.964844 C 0.925781 28.929688 9.003906 37.007812 18.964844 37.007812 C 28.929688 37.007812 37.007812 28.929688 37.007812 18.964844 C 37.007812 9.003906 28.929688 0.925781 18.964844 0.925781 Z M 29.117188 16.179688 L 18.5625 26.738281 C 18.054688 27.246094 17.367188 27.53125 16.648438 27.53125 C 15.9375 27.53125 15.25 27.246094 14.742188 26.738281 L 9.46875 21.464844 C 8.410156 20.40625 8.410156 18.703125 9.46875 17.640625 C 10.527344 16.59375 12.222656 16.59375 13.28125 17.640625 L 16.648438 21.019531 L 25.296875 12.371094 C 26.355469 11.3125 28.058594 11.3125 29.117188 12.371094 C 30.167969 13.417969 30.167969 15.121094 29.117188 16.179688 Z M 29.117188 16.179688 " fill-opacity="1" fill-rule="nonzero"/></g><path fill="#ffffff" d="M 29.117188 16.179688 L 18.5625 26.738281 C 18.054688 27.246094 17.367188 27.53125 16.648438 27.53125 C 15.9375 27.53125 15.25 27.246094 14.742188 26.738281 L 9.46875 21.464844 C 8.410156 20.40625 8.410156 18.703125 9.46875 17.640625 C 10.527344 16.59375 12.222656 16.59375 13.28125 17.640625 L 16.648438 21.019531 L 25.296875 12.371094 C 26.355469 11.3125 28.058594 11.3125 29.117188 12.371094 C 30.167969 13.417969 30.167969 15.121094 29.117188 16.179688 Z M 29.117188 16.179688 " fill-opacity="1" fill-rule="nonzero"/></svg>